<?xml version="1.0" encoding="utf-8"?>
<svg xmlns="http://www.w3.org/2000/svg" viewBox="0 0 1000 1000">
	<polygon id="left" fill="#9400d3" points="500,0 109,188 13,611 283,950 717,950 987,611 891,188" />
	<polygon id="right" fill="#7000a0" points="695.5,94 283,950 717,950 987,611 891,188" />
	<path fill="#fff" d="M357,453c17.5,25.6,46.6,52,87,78.9l65.4,42.6c53.3,34.5,79.8,71.7,79.8,111.6c-0.4,23.3-9.4,43-27.8,59.6
		c-16.6,14.8-38.6,22.4-66.8,22.4H334.1v83.4h161.4c51.6,0,93.2-16.1,126-48.9c31.8-31.8,47.5-73.5,47.5-125.5
		c0-72.6-36.3-132.2-109.4-178.9l-65-41.7c-30-18.8-51.1-36.3-64.1-52.9c-13.4-15.7-20.2-34.1-20.2-54.2c0-21.5,9-39.4,26.4-53.3
		c17.5-13,40.8-19.3,69.9-19.3h139.4v-84.3H508.5c-52,0-94.6,15.7-127.8,47.5S331,312.7,331,362.9C331,396.5,339.5,426.5,357,453z" />
</svg>
