<svg xmlns="http://www.w3.org/2000/svg" xmlns:xlink="http://www.w3.org/1999/xlink" width="2000" height="2000" viewBox="-1000 -1000 2000 2000">
	<path id="A" fill="#7000a0" transform="rotate(90)" d="M281.21866107 129.71853184A1672.322966 1672.322966 0 0 1 281.21866107 -129.71853184L260.70081241 -131.25613203A1825.3242902 1825.3242902 0 0 0 260.70081241 131.25613203M644.04924244 -152.43764698A751.04324621 751.04324621 0 0 1 484.1471399 -237.5735433L475.17278665 -224.41058464A804.30304653 804.30304653 0 0 0 639.53272901 -140.53156185M266.49607499 139.75622107A31567.542885 31567.542885 0 0 1 476.2038233 238.16881258L483.11610325 223.81531536A31567.542885 31567.542885 0 0 1 275.42339849 121.2184428M484.1471399 237.5735433A751.04324621 751.04324621 0 0 1 644.04924244 152.43764698L639.53272901 140.53156185A804.30304653 804.30304653 0 0 0 475.17278665 224.41058464M771.54217741 319.80941331A248.24683996 248.24683996 0 0 1 755.72604591 223.9921352L746.84459345 223.79196888A261.60165129 261.60165129 0 0 0 764.85003094 322.38221748M513.33063105 416.66386852A908.87702353 908.87702353 0 0 1 641.93537538 451.95442403L644.99380475 443.61378412A1036.5077596 1036.5077596 0 0 0 516.02218885 404.21761313M646.31158574 451.19360282A248.24683996 248.24683996 0 0 1 731.08574703 403.81805662L728.92476126 396.98180865A261.60165129 261.60165129 0 0 0 640.61759438 444.37460533M788.30220992 490.76978455A110.22097003 110.22097003 0 0 1 785.25802884 445.02701266L780.77058683 444.44730858A116.68937824 116.68937824 0 0 0 785.05781741 491.7230619M670.64106881 538.1263883A263.55748736 263.55748736 0 0 1 729.53289462 548.67385385L730.74281225 544.82202307A292.23478124 292.23478124 0 0 0 671.17606592 531.93706938M731.50326568 548.23480586A91.270073328 91.270073328 0 0 1 768.17235645 527.24759746L767.2779002 524.12190654A96.093006704 96.093006704 0 0 0 728.77244119 545.26107106M769.30220626 526.07886381A75.157510519 75.157510519 0 0 1 787.903893 492.41296706L785.45613434 490.0798794A78.759150625 78.759150625 0 0 0 766.14805039 525.29064019M733.50568279 401.17326034A187.54708554 187.54708554 0 0 1 770.98319768 323.35039878L765.40901067 318.84123201A196.32776684 196.32776684 0 0 0 726.5048255 399.62660493M856.46101356 374.24284237A128.22830696 128.22830696 0 0 1 838.08640953 334.27512904L833.73548896 335.51717683A137.56088842 137.56088842 0 0 0 853.92853743 376.03423646M727.58531839 403.04472892A885.21292742 885.21292742 0 0 0 781.64142811 446.53535399L784.38718756 442.93896726A691.67259816 691.67259816 0 0 1 732.4251899 397.75513636M783.88514911 446.82520603A128.22830696 128.22830696 0 0 1 826.5895439 436.27158827L826.41113915 433.17470276A137.56088842 137.56088842 0 0 0 782.14346656 442.64911522M827.88593348 435.42011537A66.843322484 66.843322484 0 0 1 849.87305852 410.03244969L848.33999065 407.78385212A70.157624063 70.157624063 0 0 0 825.11474957 434.02617566M850.46346286 408.80646244A66.843322484 66.843322484 0 0 1 856.60359092 375.78728523L853.78596007 374.4897936A70.157624063 70.157624063 0 0 0 847.74958631 409.00983937M648.07560017 147.50541801A420.91962717 420.91962717 0 0 1 699.06222646 2.9288687841L688.91632737 -2.9288687841A441.73754911 441.73754911 0 0 0 635.50637128 145.46379082M868.73884316 61.004953576A232.07186256 232.07186256 0 0 1 817.38462364 -1.9604688185L810.59336044 1.9604688185A246.77076546 246.77076546 0 0 0 865.00752064 65.425087064M637.76462799 151.41683338A1036.5077596 1036.5077596 0 0 0 748.97828201 227.68779218L753.59235735 220.09631189A908.87702353 908.87702353 0 0 1 645.81734346 141.55237545M753.41900824 227.78787534A332.72960255 332.72960255 0 0 1 837.33504534 193.9708393L835.88355358 187.93038714A359.59412811 359.59412811 0 0 0 749.15163112 219.99622874M891.16640107 271.84783217A91.270073328 91.270073328 0 0 1 884.71205719 230.09347216L880.68445648 229.81252092A96.093006704 96.093006704 0 0 0 888.16495315 273.09735452M767.63712445 324.63680087A691.67259816 691.67259816 0 0 1 835.36104157 337.09066875L836.46085692 332.70163711A885.21292742 885.21292742 0 0 0 768.75508391 317.55482992M837.53650185 336.46964486A110.22097003 110.22097003 0 0 1 875.19765688 310.32952969L873.92011348 307.19860277A116.68937824 116.68937824 0 0 0 834.28539663 333.32266101M876.23400215 308.99360544A75.157510519 75.157510519 0 0 1 890.95709814 273.45987783L888.37425608 271.48530886A78.759150625 78.759150625 0 0 0 872.88376821 308.53452702M839.58776491 191.83221189A150.18838038 150.18838038 0 0 1 873.01642478 132.08594671L869.10053636 128.47397499A157.66309257 157.66309257 0 0 0 833.63083401 190.06901454M937.07081625 167.70526008A78.955643411 78.955643411 0 0 1 921.32001919 139.99436762L918.24499185 141.04992556A83.957342678 83.957342678 0 0 0 935.34112405 169.25801121M834.35657989 193.08924062A292.23478124 292.23478124 0 0 0 881.5697012 231.62676099L883.82681247 228.27923209A263.55748736 263.55748736 0 0 1 838.86201903 188.81198581M883.58350155 231.76723662A135.36933133 135.36933133 0 0 1 919.54319707 219.21663784L919.0730685 216.64298423A147.87382977 147.87382977 0 0 0 881.81301211 228.13875646M920.54008963 218.3696528A55.732434494 55.732434494 0 0 1 935.55436493 195.52493186L934.10801696 193.92354708A58.622582772 58.622582772 0 0 0 918.07617594 217.48996928M935.88619789 194.49829862A49.282113669 49.282113669 0 0 1 937.31075417 168.84242655L935.10118613 168.12084473A51.68232835 51.68232835 0 0 0 933.77618401 194.95018032M873.60148231 129.48732436A138.14943317 138.14943317 0 0 1 869.71998647 63.725696994L864.02637732 62.704343645A144.75524665 144.75524665 0 0 0 868.51547883 131.07259734M947.3633036 70.390425783A109.0579193 109.0579193 0 0 1 921.46158516 47.514407934L918.69750252 49.890517794A117.99695063 117.99695063 0 0 0 946.1035728 72.441569136M870.47342304 132.87858321A2942.1256932 2942.1256932 0 0 0 919.47081868 142.11756197L920.09419236 138.92673121A1240.1438763 1240.1438763 0 0 1 871.6435381 127.6813385M921.00833235 141.589783A82.654453773 82.654453773 0 0 1 945.44838361 121.76963585L944.40851895 119.76071798A88.246420327 88.246420327 0 0 0 918.55667869 139.45451017M946.0583044 120.81713178A47.555679621 47.555679621 0 0 1 953.40924033 97.307574684L951.6899588 96.208405411A49.896059402 49.896059402 0 0 0 943.79859816 120.71322205M953.4553742 96.288311625A50.697812299 50.697812299 0 0 1 947.93654203 71.448691058L945.53033438 71.383303861A53.275373004 53.275373004 0 0 0 951.64382492 97.22766847M699.06222646 -2.9288687841A420.91962717 420.91962717 0 0 1 648.07560017 -147.50541801L635.50637128 -145.46379082A441.73754911 441.73754911 0 0 0 688.91632737 2.9288687841M837.33504534 -193.9708393A332.72960255 332.72960255 0 0 1 753.41900824 -227.78787534L749.15163112 -219.99622874A359.59412811 359.59412811 0 0 0 835.88355358 -187.93038714M693.98927692 5.8577375682A12754.125131 12754.125131 0 0 1 813.98899204 3.9209376369L813.98899204 -3.9209376369A12754.125131 12754.125131 0 0 1 693.98927692 -5.8577375682M817.38462364 1.9604688185A232.07186256 232.07186256 0 0 1 868.73884316 -61.004953576L865.00752064 -65.425087064A246.77076546 246.77076546 0 0 0 810.59336044 -1.9604688185M941.25217274 -17.583929713A83.115579077 83.115579077 0 0 1 921.79945025 -49.305318291L918.35963743 -48.099607437A87.739605848 87.739605848 0 0 0 939.26260307 -15.596426502M867.85432521 65.935763739A322.51934431 322.51934431 0 0 1 920.41740893 50.49337322L919.74167875 46.911552508A372.23076097 372.23076097 0 0 0 865.89203858 60.494276901M921.79945025 49.305318291A83.115579077 83.115579077 0 0 1 941.25217274 17.583929713L939.26260307 15.596426502A87.739605848 87.739605848 0 0 0 918.35963743 48.099607437M941.61539446 16.22554497A62.478121475 62.478121475 0 0 1 941.61539446 -16.22554497L938.89938135 -16.954811245A65.475138976 65.475138976 0 0 0 938.89938135 16.954811245M869.71998647 -63.725696994A138.14943317 138.14943317 0 0 1 873.60148231 -129.48732436L868.51547883 -131.07259734A144.75524665 144.75524665 0 0 0 864.02637732 -62.704343645M945.44838361 -121.76963585A82.654453773 82.654453773 0 0 1 921.00833235 -141.589783L918.55667869 -139.45451017A88.246420327 88.246420327 0 0 0 944.40851895 -119.76071798M865.89203858 -60.494276901A372.23076097 372.23076097 0 0 0 919.74167875 -46.911552508L920.41740893 -50.49337322A322.51934431 322.51934431 0 0 1 867.85432521 -65.935763739M921.46158516 -47.514407934A109.0579193 109.0579193 0 0 1 947.3633036 -70.390425783L946.1035728 -72.441569136A117.99695063 117.99695063 0 0 0 918.69750252 -49.890517794M947.93654203 -71.448691058A50.697812299 50.697812299 0 0 1 953.4553742 -96.288311625L951.64382492 -97.22766847A53.275373004 53.275373004 0 0 0 945.53033438 -71.383303861M953.40924033 -97.307574684A47.555679621 47.555679621 0 0 1 946.0583044 -120.81713178L943.79859816 -120.71322205A49.896059402 49.896059402 0 0 0 951.6899588 -96.208405411M873.01642478 -132.08594671A150.18838038 150.18838038 0 0 1 839.58776491 -191.83221189L833.63083401 -190.06901454A157.66309257 157.66309257 0 0 0 869.10053636 -128.47397499M919.54319707 -219.21663784A135.36933133 135.36933133 0 0 1 883.58350155 -231.76723662L881.81301211 -228.13875646A147.87382977 147.87382977 0 0 0 919.0730685 -216.64298423M871.6435381 -127.6813385A1240.1438763 1240.1438763 0 0 1 920.09419236 -138.92673121L919.47081868 -142.11756197A2942.1256932 2942.1256932 0 0 0 870.47342304 -132.87858321M921.32001919 -139.99436762A78.955643411 78.955643411 0 0 1 937.07081625 -167.70526008L935.34112405 -169.25801121A83.957342678 83.957342678 0 0 0 918.24499185 -141.04992556M937.31075417 -168.84242655A49.282113669 49.282113669 0 0 1 935.88619789 -194.49829862L933.77618401 -194.95018032A51.68232835 51.68232835 0 0 0 935.10118613 -168.12084473M935.55436493 -195.52493186A55.732434494 55.732434494 0 0 1 920.54008963 -218.3696528L918.07617594 -217.48996928A58.622582772 58.622582772 0 0 0 934.10801696 -193.92354708" />
	<use xlink:href="#A" transform="rotate(51.42857142857143)"/>
	<use xlink:href="#A" transform="rotate(102.85714285714286)"/>
	<use xlink:href="#A" transform="rotate(154.28571428571428)"/>
	<use xlink:href="#A" transform="rotate(205.71428571428572)"/>
	<use xlink:href="#A" transform="rotate(257.14285714285717)"/>
	<use xlink:href="#A" transform="rotate(308.57142857142856)"/>
</svg>
